<svg width="21" height="24" viewBox="0 0 21 24" fill="none" xmlns="http://www.w3.org/2000/svg">
<path d="M19.6452 8.18279C19.506 8.29079 17.0484 9.67559 17.0484 12.7548C17.0484 16.3164 20.1756 17.5764 20.2692 17.6076C20.2548 17.6844 19.7724 19.3332 18.6204 21.0132C17.5932 22.4916 16.5204 23.9676 14.8884 23.9676C13.2564 23.9676 12.8364 23.0196 10.9524 23.0196C9.1164 23.0196 8.4636 23.9988 6.9708 23.9988C5.478 23.9988 4.4364 22.6308 3.2388 20.9508C1.8516 18.978 0.730804 15.9132 0.730804 13.0044C0.730804 8.33879 3.7644 5.86439 6.75 5.86439C8.3364 5.86439 9.6588 6.90599 10.6548 6.90599C11.6028 6.90599 13.0812 5.80199 14.886 5.80199C15.57 5.80199 18.0276 5.86439 19.6452 8.18279ZM14.0292 3.82679C14.7756 2.94119 15.3036 1.71239 15.3036 0.48359C15.3036 0.31319 15.2892 0.14039 15.258 0.00119019C14.0436 0.0467902 12.5988 0.80999 11.7276 1.82039C11.0436 2.59799 10.4052 3.82679 10.4052 5.07239C10.4052 5.25959 10.4364 5.44679 10.4508 5.50679C10.5276 5.52119 10.6524 5.53799 10.7772 5.53799C11.8668 5.53799 13.2372 4.80839 14.0292 3.82679Z" fill="#202020"/>
</svg>
