<svg width="24" height="24" viewBox="0 0 24 24" fill="none" xmlns="http://www.w3.org/2000/svg">
<g clip-path="url(#clip0_148_1108)">
<path d="M12 0C8.8174 0 5.76515 1.26428 3.51472 3.51472C1.26428 5.76515 0 8.8174 0 12C0 15.1826 1.26428 18.2348 3.51472 20.4853C5.76515 22.7357 8.8174 24 12 24C15.1826 24 18.2348 22.7357 20.4853 20.4853C22.7357 18.2348 24 15.1826 24 12C24 8.8174 22.7357 5.76515 20.4853 3.51472C18.2348 1.26428 15.1826 0 12 0Z" fill="#039BE5"/>
<path d="M13.6244 15.1807H16.7299L17.2175 12.0259H13.6238V10.3017C13.6238 8.99118 14.052 7.82908 15.2779 7.82908H17.2478V5.07602C16.9017 5.02929 16.1697 4.92697 14.7865 4.92697C11.8983 4.92697 10.2051 6.45223 10.2051 9.92718V12.0259H7.23602V15.1807H10.2051V23.8516C10.7931 23.94 11.3887 24 12 24C12.5527 24 13.092 23.9495 13.6244 23.8775V15.1807Z" fill="white"/>
</g>
<defs>
<clipPath id="clip0_148_1108">
<rect width="24" height="24" fill="white"/>
</clipPath>
</defs>
</svg>
