<svg width="12" height="15" viewBox="0 0 12 15" fill="none" xmlns="http://www.w3.org/2000/svg">
<path d="M9.99999 5.33333H9.33332V4C9.33332 2.16 7.83999 0.666668 5.99999 0.666668C4.15999 0.666668 2.66666 2.16 2.66666 4V5.33333H1.99999C1.26666 5.33333 0.666656 5.93333 0.666656 6.66667V13.3333C0.666656 14.0667 1.26666 14.6667 1.99999 14.6667H9.99999C10.7333 14.6667 11.3333 14.0667 11.3333 13.3333V6.66667C11.3333 5.93333 10.7333 5.33333 9.99999 5.33333ZM5.99999 11.3333C5.26666 11.3333 4.66666 10.7333 4.66666 10C4.66666 9.26667 5.26666 8.66667 5.99999 8.66667C6.73332 8.66667 7.33332 9.26667 7.33332 10C7.33332 10.7333 6.73332 11.3333 5.99999 11.3333ZM8.06666 5.33333H3.93332V4C3.93332 2.86 4.85999 1.93333 5.99999 1.93333C7.13999 1.93333 8.06666 2.86 8.06666 4V5.33333Z" fill="#444444"/>
</svg>
