<svg width="25" height="24" viewBox="0 0 25 24" fill="none" xmlns="http://www.w3.org/2000/svg">
<g clip-path="url(#clip0_148_864)">
<path d="M22.75 10H12.5V14.25H18.4C17.85 16.95 15.55 18.5 12.5 18.5C8.9 18.5 6 15.6 6 12C6 8.4 8.9 5.5 12.5 5.5C14.05 5.5 15.45 6.05 16.55 6.95L19.75 3.75C17.8 2.05 15.3 1 12.5 1C6.4 1 1.5 5.9 1.5 12C1.5 18.1 6.4 23 12.5 23C18 23 23 19 23 12C23 11.35 22.9 10.65 22.75 10Z" fill="#202020"/>
<path d="M12.5 10V14.25H18.4C17.85 16.95 15.55 18.5 12.5 18.5C9.59999 18.5 7.19999 16.65 6.34999 14.05L2.64999 16.9C4.39999 20.5 8.14999 23 12.5 23C18 23 23 19 23 12C23 11.35 22.9 10.65 22.75 10H12.5Z" fill="#34A853"/>
<path d="M6 12C6 11.3 6.1 10.6 6.35 9.95001L2.65 7.10001C1.9 8.60001 1.5 10.25 1.5 12C1.5 13.75 1.9 15.4 2.65 16.85L6.35 14C6.1 13.4 6 12.7 6 12Z" fill="#FBBC05"/>
<path d="M2.64999 7.15L6.34999 10C7.19999 7.35 9.59999 5.5 12.5 5.5C14.05 5.5 15.45 6.05 16.55 6.95L19.75 3.75C17.8 2.05 15.3 1 12.5 1C8.14999 1 4.39999 3.5 2.64999 7.15Z" fill="#EA4335"/>
<path d="M12.5 10V14.25H18.4C18.1 15.7 17.3 16.8 16.15 17.55L19.65 20.25C21.65 18.35 23 15.6 23 12C23 11.35 22.9 10.65 22.75 10H12.5Z" fill="#4285F4"/>
</g>
<defs>
<clipPath id="clip0_148_864">
<rect width="24" height="24" fill="white" transform="translate(0.5)"/>
</clipPath>
</defs>
</svg>
