<svg width="24" height="13" viewBox="0 0 24 13" fill="none" xmlns="http://www.w3.org/2000/svg">
<path d="M3.00001 12.15C2.36488 12.15 1.85001 11.6351 1.85001 11C1.85001 10.3649 2.36488 9.85 3.00001 9.85H21C21.6351 9.85 22.15 10.3649 22.15 11C22.15 11.6351 21.6351 12.15 21 12.15H3.00001ZM3.46987 5.31903C3.25289 5.70698 2.76004 5.84175 2.37584 5.61822C2.00075 5.39998 1.86985 4.92134 2.08169 4.54259L2.52501 3.75H1.65001C1.20818 3.75 0.850006 3.39183 0.850006 2.95C0.850006 2.50817 1.20818 2.15 1.65001 2.15H2.52501L2.09767 1.41188C1.87791 1.03229 2.00691 0.54644 2.38603 0.325862C2.7663 0.104613 3.25395 0.234093 3.47438 0.614838L3.90001 1.35L4.34432 0.605118C4.56909 0.228308 5.05526 0.102608 5.4345 0.323254C5.8161 0.545273 5.94594 1.0343 5.72474 1.41637L5.30001 2.15H6.15001C6.59183 2.15 6.95001 2.50817 6.95001 2.95C6.95001 3.39183 6.59183 3.75 6.15001 3.75H5.30001L5.74083 4.53815C5.95405 4.91936 5.82231 5.40112 5.44477 5.62078C5.06153 5.84375 4.57005 5.71273 4.34867 5.32857L3.90001 4.55L3.46987 5.31903ZM11.5697 5.31942C11.3523 5.70805 10.8597 5.84482 10.4731 5.6239C10.088 5.40383 9.95497 4.91271 10.1764 4.5284L10.625 3.75H9.75001C9.30818 3.75 8.95001 3.39183 8.95001 2.95C8.95001 2.50817 9.30818 2.15 9.75001 2.15H10.625L10.193 1.42583C9.96344 1.04091 10.0944 0.542503 10.4835 0.320135C10.866 0.101549 11.3533 0.232957 11.574 0.614241L12 1.35L12.426 0.614241C12.6467 0.232957 13.134 0.101549 13.5165 0.320135C13.9056 0.542503 14.0366 1.04091 13.807 1.42583L13.375 2.15H14.25C14.6918 2.15 15.05 2.50817 15.05 2.95C15.05 3.39183 14.6918 3.75 14.25 3.75H13.375L13.8236 4.5284C14.045 4.91271 13.9121 5.40383 13.5269 5.6239C13.1403 5.84482 12.6477 5.70805 12.4304 5.31942L12 4.55L11.5697 5.31942ZM19.6513 5.32857C19.43 5.71273 18.9385 5.84375 18.5552 5.62078C18.1777 5.40112 18.046 4.91936 18.2592 4.53815L18.7 3.75H17.85C17.4082 3.75 17.05 3.39183 17.05 2.95C17.05 2.50817 17.4082 2.15 17.85 2.15H18.7L18.2753 1.41637C18.0541 1.0343 18.1839 0.545273 18.5655 0.323254C18.9447 0.102608 19.4309 0.228309 19.6557 0.605118L20.1 1.35L20.5256 0.614839C20.7461 0.234093 21.2337 0.104613 21.614 0.325862C21.9931 0.54644 22.1221 1.03229 21.9023 1.41188L21.475 2.15H22.35C22.7918 2.15 23.15 2.50817 23.15 2.95C23.15 3.39183 22.7918 3.75 22.35 3.75H21.475L21.9183 4.54259C22.1302 4.92134 21.9993 5.39998 21.6242 5.61821C21.24 5.84175 20.7471 5.70698 20.5301 5.31903L20.1 4.55L19.6513 5.32857Z" fill="#399BC4"/>
</svg>
