<svg width="18" height="20" viewBox="0 0 18 20" fill="none" xmlns="http://www.w3.org/2000/svg">
<g filter="url(#filter0_d_302_113)">
<path d="M12.875 11.625C12.7898 11.6249 12.7071 11.5958 12.6406 11.5425L10.8687 10.125H9.5C9.40054 10.125 9.30516 10.0854 9.23483 10.0151C9.16451 9.94479 9.125 9.84941 9.125 9.74995V7.87495C9.125 7.7755 9.16451 7.68012 9.23483 7.60979C9.30516 7.53946 9.40054 7.49995 9.5 7.49995H10.8687L12.641 6.08245C12.6961 6.03842 12.7626 6.01084 12.8327 6.00288C12.9028 5.99492 12.9737 6.00691 13.0374 6.03746C13.101 6.06801 13.1547 6.11588 13.1923 6.17559C13.2299 6.23529 13.2499 6.30439 13.25 6.37495V11.25C13.25 11.3494 13.2105 11.4448 13.1402 11.5151C13.0698 11.5854 12.9745 11.625 12.875 11.625ZM9.875 9.37495H11C11.0852 9.37502 11.1679 9.40412 11.2344 9.45745L12.5 10.47V7.15495L11.234 8.16745C11.1676 8.22071 11.0851 8.2498 11 8.24995H9.875V9.37495Z" fill="white" fill-opacity="0.5"/>
<path d="M8 10.5001H5V1.50013H8V3.75013C8.00059 3.94886 8.0798 4.13928 8.22033 4.2798C8.36085 4.42033 8.55127 4.49953 8.75 4.50013H11V5.62513H11.75V3.75013C11.7513 3.70084 11.742 3.65186 11.7225 3.60654C11.7031 3.56123 11.6741 3.52066 11.6375 3.48763L9.0125 0.862628C8.97949 0.826007 8.93892 0.796984 8.8936 0.777561C8.84828 0.758139 8.79929 0.748779 8.75 0.750128H5C4.80127 0.750721 4.61085 0.829929 4.47033 0.970453C4.3298 1.11098 4.25059 1.3014 4.25 1.50013V10.5001C4.25059 10.6989 4.3298 10.8893 4.47033 11.0298C4.61085 11.1703 4.80127 11.2495 5 11.2501H8V10.5001ZM8.75 1.65013L10.85 3.75013H8.75V1.65013Z" fill="white" fill-opacity="0.5"/>
</g>
<defs>
<filter id="filter0_d_302_113" x="-2" y="0" width="20" height="20" filterUnits="userSpaceOnUse" color-interpolation-filters="sRGB">
<feFlood flood-opacity="0" result="BackgroundImageFix"/>
<feColorMatrix in="SourceAlpha" type="matrix" values="0 0 0 0 0 0 0 0 0 0 0 0 0 0 0 0 0 0 127 0" result="hardAlpha"/>
<feOffset dy="4"/>
<feGaussianBlur stdDeviation="2"/>
<feComposite in2="hardAlpha" operator="out"/>
<feColorMatrix type="matrix" values="0 0 0 0 0 0 0 0 0 0 0 0 0 0 0 0 0 0 0.25 0"/>
<feBlend mode="normal" in2="BackgroundImageFix" result="effect1_dropShadow_302_113"/>
<feBlend mode="normal" in="SourceGraphic" in2="effect1_dropShadow_302_113" result="shape"/>
</filter>
</defs>
</svg>
